<?xml version="1.0" encoding="UTF-8" standalone="no"?>
<!DOCTYPE svg PUBLIC "-//W3C//DTD SVG 1.1//EN" "http://www.w3.org/Graphics/SVG/1.1/DTD/svg11.dtd">
<svg fill="#70706f" width="100%" height="100%" viewBox="0 0 112 148" version="1.1" xmlns="http://www.w3.org/2000/svg" xmlns:xlink="http://www.w3.org/1999/xlink" xml:space="preserve" xmlns:serif="http://www.serif.com/" style="fill-rule:evenodd;clip-rule:evenodd;stroke-linejoin:round;stroke-miterlimit:2;">
    <path d="M55.68,147.663c-32.355,0.217 -57.048,-35.351 -55.621,-63.668c1.096,-21.756 15.024,-38.441 15.024,-38.441c-0.522,6.934 0.798,13.869 7.578,20.803c-4.627,-33.756 15.103,-51.64 49.046,-66.357c0,0 -8.296,10.862 -5.729,23.316c0.746,3.619 2.109,11.224 6.744,20.069c3.375,6.442 9.939,13.938 12.134,19.094c6.632,15.575 6.217,22.438 6.217,22.438c0,0 6.078,-9.786 7.619,-15.402c1.578,-5.754 1.854,-19.12 1.854,-19.12c-0,0 7.384,8.376 9.789,24.492c4.264,28.569 -1.681,71.759 -53.591,72.762c20.365,-0.607 31.47,-20.057 30.429,-36.737c-0.54,-8.64 -7.192,-14.9 -7.192,-14.9c-0,-0 4.723,8.119 0.049,22.016c-1.792,5.328 -5.172,9.104 -6.652,10.577c-0.42,0.481 -0.726,0.684 -0.726,0.684c0,0 0.275,-0.235 0.726,-0.684c1.809,-2.071 5.746,-9.293 -3.361,-27.65c-0.401,-0.807 -7.465,-9.606 -14.291,-21.849c-3.294,-5.907 -2.929,-17.012 -2.929,-17.012c-12.219,6.652 -20.46,26.824 -11.807,49.551c-6.406,-6.419 -7.331,-9.47 -7.258,-18.204c-0,-0 -7.959,10.544 -8.552,22.097c-0.772,15.031 12.999,32.071 30.5,32.125Z"/>
</svg>