<?xml version="1.0" encoding="UTF-8" standalone="no"?><!DOCTYPE svg PUBLIC "-//W3C//DTD SVG 1.1//EN" "http://www.w3.org/Graphics/SVG/1.1/DTD/svg11.dtd"><svg width="100%" height="100%" viewBox="0 0 57 70" version="1.1" xmlns="http://www.w3.org/2000/svg" xmlns:xlink="http://www.w3.org/1999/xlink" xml:space="preserve" xmlns:serif="http://www.serif.com/" style="fill-rule:evenodd;clip-rule:evenodd;stroke-linejoin:round;stroke-miterlimit:2;"><path id="Gas" d="M20.598,58.726l-0.124,-0c0,4.887 -3.067,9.063 -7.38,10.706c-7.867,-4.99 -13.094,-13.778 -13.094,-23.777c-0,-18.529 20.932,-41.169 28.136,-45.655c-2.881,11.69 28.137,27.126 28.137,45.655c-0,10.007 -5.236,18.801 -13.115,23.789c-4.331,-1.634 -7.414,-5.819 -7.414,-10.718l-0.07,-0c5.448,-2.759 9.185,-8.411 9.185,-14.929c-0,-10.449 -13.931,-16.06 -20.515,-26.051c-6.291,3.396 -12.93,15.602 -12.93,26.051c-0,6.518 3.737,12.17 9.184,14.929Z"/></svg>