<?xml version="1.0" encoding="UTF-8" standalone="no"?><!DOCTYPE svg PUBLIC "-//W3C//DTD SVG 1.1//EN" "http://www.w3.org/Graphics/SVG/1.1/DTD/svg11.dtd"><svg width="100%" height="100%" viewBox="0 0 54 69" version="1.1" xmlns="http://www.w3.org/2000/svg" xmlns:xlink="http://www.w3.org/1999/xlink" xml:space="preserve" xmlns:serif="http://www.serif.com/" style="fill-rule:evenodd;clip-rule:evenodd;stroke-linejoin:round;stroke-miterlimit:2;"><path id="Gas" d="M11.883,11.651l-0,-11.651l41.536,0l-0,68.245l-41.536,0l-0,-29.802c-6.689,-0.796 -11.883,-6.495 -11.883,-13.396c-0,-6.902 5.194,-12.6 11.883,-13.396Zm38.483,47.873l-35.431,-0l0,5.887l35.431,-0l0,-5.887Zm-35.361,-21.07l-0,18.23l35.292,0l0,-54.171l-35.292,-0l-0,9.127c6.734,0.753 11.977,6.473 11.977,13.407c-0,6.934 -5.243,12.654 -11.977,13.407Zm22.007,9.732l-8.722,-0l0,2.943l8.722,0l-0,-2.943Zm-23.521,-33.414c5.671,-0 10.275,4.604 10.275,10.275c-0,5.671 -4.604,10.275 -10.275,10.275c-5.671,-0 -10.275,-4.604 -10.275,-10.275c0,-5.671 4.604,-10.275 10.275,-10.275Zm-1.548,15.204l-0.025,0c-0,1.004 -0.63,1.861 -1.516,2.199c-1.616,-1.025 -2.689,-2.83 -2.689,-4.883c0,-3.805 4.299,-8.454 5.778,-9.376c-0.592,2.401 5.778,5.571 5.778,9.376c-0,2.055 -1.075,3.861 -2.693,4.885c-0.89,-0.335 -1.523,-1.195 -1.523,-2.201l-0.014,0c1.119,-0.566 1.886,-1.727 1.886,-3.066c0,-2.145 -2.861,-3.298 -4.213,-5.349c-1.292,0.697 -2.655,3.204 -2.655,5.349c-0,1.339 0.767,2.5 1.886,3.066Z"/></svg>