<?xml version="1.0" encoding="UTF-8" standalone="no"?><!DOCTYPE svg PUBLIC "-//W3C//DTD SVG 1.1//EN" "http://www.w3.org/Graphics/SVG/1.1/DTD/svg11.dtd"><svg width="100%" height="100%" viewBox="0 0 54 69" version="1.1" xmlns="http://www.w3.org/2000/svg" xmlns:xlink="http://www.w3.org/1999/xlink" xml:space="preserve" xmlns:serif="http://www.serif.com/" style="fill-rule:evenodd;clip-rule:evenodd;stroke-linejoin:round;stroke-miterlimit:2;"><path id="Holz" d="M11.922,11.429l0,-11.429l41.536,0l0,68.245l-41.536,0l0,-30.015c-6.708,-0.779 -11.922,-6.486 -11.922,-13.401c0,-6.915 5.214,-12.621 11.922,-13.4Zm38.484,48.095l-35.431,-0l-0,5.887l35.431,-0l-0,-5.887Zm-35.362,-21.292l0,18.452l35.293,0l-0,-54.171l-35.293,-0l0,8.914c6.715,0.771 11.938,6.482 11.938,13.402c-0,6.921 -5.223,12.632 -11.938,13.403Zm22.007,9.736l-8.721,-0l-0,2.943l8.721,0l0,-2.943Zm-23.56,-33.413c5.671,-0 10.275,4.604 10.275,10.274c-0,5.671 -4.604,10.275 -10.275,10.275c-5.671,0 -10.275,-4.604 -10.275,-10.275c0,-5.67 4.604,-10.274 10.275,-10.274Zm-0.004,17.404c-3.125,0.021 -5.509,-3.414 -5.372,-6.148c0.106,-2.101 1.451,-3.712 1.451,-3.712c-0.05,0.669 0.077,1.339 0.732,2.009c-0.447,-3.26 1.458,-4.987 4.736,-6.408c0,-0 -0.801,1.049 -0.553,2.251c0.072,0.35 0.204,1.084 0.651,1.938c0.326,0.622 0.96,1.346 1.172,1.844c0.64,1.504 0.6,2.167 0.6,2.167c0,-0 0.587,-0.945 0.736,-1.487c0.153,-0.556 0.179,-1.847 0.179,-1.847c0,0 0.713,0.809 0.945,2.365c0.412,2.759 -0.162,6.93 -5.175,7.027c1.967,-0.059 3.039,-1.937 2.939,-3.548c-0.052,-0.834 -0.695,-1.439 -0.695,-1.439c0,0 0.456,0.784 0.005,2.126c-0.173,0.515 -0.499,0.88 -0.642,1.022c-0.041,0.046 -0.07,0.066 -0.07,0.066c-0,-0 0.026,-0.023 0.07,-0.066c0.174,-0.2 0.555,-0.898 -0.325,-2.67c-0.039,-0.078 -0.721,-0.928 -1.38,-2.11c-0.318,-0.571 -0.283,-1.643 -0.283,-1.643c-1.18,0.642 -1.976,2.59 -1.14,4.785c-0.619,-0.62 -0.708,-0.914 -0.701,-1.758c0,0 -0.768,1.018 -0.826,2.134c-0.074,1.451 1.256,3.097 2.946,3.102Z"/></svg>