<?xml version="1.0" encoding="UTF-8" standalone="no"?><!DOCTYPE svg PUBLIC "-//W3C//DTD SVG 1.1//EN" "http://www.w3.org/Graphics/SVG/1.1/DTD/svg11.dtd"><svg width="100%" height="100%" viewBox="0 0 100 70" version="1.1" xmlns="http://www.w3.org/2000/svg" xmlns:xlink="http://www.w3.org/1999/xlink" xml:space="preserve" xmlns:serif="http://www.serif.com/" style="fill-rule:evenodd;clip-rule:evenodd;stroke-linejoin:round;stroke-miterlimit:2;"><g><path id="Flamme" d="M49.595,69.444c-9.316,0.063 -16.426,-10.179 -16.015,-18.332c0.316,-6.264 4.326,-11.068 4.326,-11.068c-0.15,1.996 0.23,3.993 2.182,5.99c-1.332,-9.72 4.349,-14.869 14.122,-19.107c-0,0 -2.389,3.128 -1.65,6.714c0.215,1.042 0.608,3.231 1.942,5.778c0.972,1.855 2.862,4.014 3.494,5.498c1.91,4.485 1.79,6.461 1.79,6.461c-0,-0 1.75,-2.818 2.194,-4.435c0.454,-1.657 0.533,-5.505 0.533,-5.505c0,-0 2.127,2.411 2.819,7.052c1.228,8.226 -0.484,20.661 -15.43,20.95c5.863,-0.175 9.061,-5.775 8.761,-10.578c-0.155,-2.487 -2.071,-4.29 -2.071,-4.29c0,0 1.36,2.338 0.014,6.339c-0.516,1.534 -1.489,2.622 -1.915,3.046c-0.121,0.138 -0.209,0.197 -0.209,0.197c0,-0 0.079,-0.068 0.209,-0.197c0.521,-0.597 1.655,-2.676 -0.968,-7.961c-0.115,-0.233 -2.149,-2.766 -4.115,-6.291c-0.948,-1.701 -0.843,-4.899 -0.843,-4.899c-3.518,1.916 -5.891,7.724 -3.4,14.268c-1.844,-1.849 -2.11,-2.727 -2.089,-5.242c-0,-0 -2.292,3.036 -2.463,6.362c-0.222,4.328 3.743,9.235 8.782,9.25Z"/><path d="M9.228,21.542l-9.228,-0l0,-21.542l99.217,0l-0,21.542l-9.228,-0l0,45.351l-14.435,0l0,-45.351l-51.891,-0l-0,45.351l-14.435,0l-0,-45.351Z"/></g></svg>