<?xml version="1.0" encoding="utf-8"?>
<!-- Generator: Adobe Illustrator 24.3.0, SVG Export Plug-In . SVG Version: 6.00 Build 0)  -->
<svg version="1.1" id="Ebene_1" xmlns:serif="http://www.serif.com/"
	 xmlns="http://www.w3.org/2000/svg" xmlns:xlink="http://www.w3.org/1999/xlink" x="0px" y="0px" viewBox="0 0 196 794.3"
	 style="enable-background:new 0 0 196 794.3;" xml:space="preserve">
<style type="text/css">
	.st0{fill-rule:evenodd;clip-rule:evenodd;fill:url(#SVGID_1_);}
	.st1{fill:none;stroke:#000000;stroke-width:2;stroke-miterlimit:10;}
	.st2{font-family:'Roboto-Regular';}
	.st3{font-size:30px;}
</style>
<linearGradient id="SVGID_1_" gradientUnits="userSpaceOnUse" x1="-207.3503" y1="794.5535" x2="-206.3503" y2="794.5535" gradientTransform="matrix(0.7069 -801.0289 -167.0095 -0.1474 132942.3594 -165177.0469)">
	<stop  offset="0" style="stop-color:#FF0900"/>
	<stop  offset="0.5" style="stop-color:#FFFB00"/>
	<stop  offset="1" style="stop-color:#27FF00"/>
</linearGradient>
<path class="st0" d="M58.1,2.6v791.7h-8.6c-26.9,0-48.7-21.8-48.7-48.7V51.2c0-26.9,21.8-48.7,48.7-48.7L58.1,2.6L58.1,2.6z
	 M138.2,2.6h8.6c26.9,0,48.7,21.8,48.7,48.7v694.4c0,26.9-21.8,48.7-48.7,48.7h-8.6V2.6z"/>
<line class="st1" x1="0" y1="88.6" x2="57.3" y2="88.6"/>
<line class="st1" x1="137.4" y1="88.6" x2="194.7" y2="88.6"/>
<g>
	<line class="st1" x1="1.3" y1="145.6" x2="58.6" y2="145.6"/>
	<line class="st1" x1="138.7" y1="145.6" x2="196" y2="145.6"/>
</g>
<line class="st1" x1="1.3" y1="216.8" x2="58.6" y2="216.8"/>
<line class="st1" x1="138.7" y1="216.8" x2="196" y2="216.8"/>
<line class="st1" x1="1.3" y1="288.2" x2="58.6" y2="288.2"/>
<line class="st1" x1="138.7" y1="288.2" x2="196" y2="288.2"/>
<line class="st1" x1="0" y1="373.8" x2="57.3" y2="373.8"/>
<line class="st1" x1="137.4" y1="373.8" x2="194.7" y2="373.8"/>
<line class="st1" x1="1.3" y1="459.6" x2="58.6" y2="459.6"/>
<line class="st1" x1="138.7" y1="459.6" x2="196" y2="459.6"/>
<line class="st1" x1="0.8" y1="573.8" x2="58.1" y2="573.8"/>
<line class="st1" x1="138.2" y1="573.8" x2="195.5" y2="573.8"/>
<line class="st1" x1="0.8" y1="716.3" x2="58.1" y2="716.3"/>
<line class="st1" x1="138.2" y1="716.3" x2="195.5" y2="716.3"/>
<text transform="matrix(1 0 0 1 11.6609 67.372)" class="st2 st3">A+</text>
<text transform="matrix(1 0 0 1 81.8044 97.9016)" class="st2 st3">30</text>
<text transform="matrix(1 0 0 1 81.8042 156.1736)" class="st2 st3">50</text>
<text transform="matrix(1 0 0 1 83.1279 226.8449)" class="st2 st3">75</text>
<text transform="matrix(1 0 0 1 74.7053 296.4105)" class="st2 st3">100</text>
<text transform="matrix(1 0 0 1 73.3812 383.3739)" class="st2 st3">130</text>
<text transform="matrix(1 0 0 1 73.3812 469.6449)" class="st2 st3">160</text>
<text transform="matrix(1 0 0 1 73.3812 584.7621)" class="st2 st3">200</text>
<text transform="matrix(1 0 0 1 73.3812 727.3201)" class="st2 st3">250</text>
<text transform="matrix(1 0 0 1 18.8409 126.9391)" class="st2 st3">A</text>
<text transform="matrix(1 0 0 1 20.6114 191.5854)" class="st2 st3">B</text>
<text transform="matrix(1 0 0 1 18.8628 264.2927)" class="st2 st3">C</text>
<text transform="matrix(1 0 0 1 19.6041 343.4657)" class="st2 st3">D</text>
<text transform="matrix(1 0 0 1 20.915 428.697)" class="st2 st3">E</text>
<text transform="matrix(1 0 0 1 21.6585 530.6656)" class="st2 st3">F</text>
<text transform="matrix(1 0 0 1 19.7323 656.2081)" class="st2 st3">G</text>
<text transform="matrix(1 0 0 1 19.2562 762.7166)" class="st2 st3">H</text>
<text transform="matrix(1 0 0 1 149.7231 67.8544)" class="st2 st3">A+</text>
<text transform="matrix(1 0 0 1 156.9032 127.4215)" class="st2 st3">A</text>
<text transform="matrix(1 0 0 1 158.6736 192.0677)" class="st2 st3">B</text>
<text transform="matrix(1 0 0 1 156.9251 264.775)" class="st2 st3">C</text>
<text transform="matrix(1 0 0 1 157.6663 343.948)" class="st2 st3">D</text>
<text transform="matrix(1 0 0 1 158.9772 429.1793)" class="st2 st3">E</text>
<text transform="matrix(1 0 0 1 159.7208 531.1479)" class="st2 st3">F</text>
<text transform="matrix(1 0 0 1 157.7945 656.6904)" class="st2 st3">G</text>
<text transform="matrix(1 0 0 1 157.3185 763.1989)" class="st2 st3">H</text>
</svg>
