<?xml version="1.0" encoding="UTF-8" standalone="no"?>
<!DOCTYPE svg PUBLIC "-//W3C//DTD SVG 1.1//EN" "http://www.w3.org/Graphics/SVG/1.1/DTD/svg11.dtd">
<svg fill="#70706f" width="100%" height="100%" viewBox="0 0 117 115" version="1.1" xmlns="http://www.w3.org/2000/svg" xmlns:xlink="http://www.w3.org/1999/xlink" xml:space="preserve" xmlns:serif="http://www.serif.com/" style="fill-rule:evenodd;clip-rule:evenodd;stroke-linejoin:round;stroke-miterlimit:2;">
    <g>
        <path d="M45.612,114.056l-27.075,-0c-1.087,-0 -1.969,-0.87 -1.969,-1.941l-0,-56.006c-0,-0.667 0.416,-1.239 1.007,-1.476c0.085,-0.158 39.257,-38.802 39.257,-38.802c0.606,-0.598 1.59,-0.598 2.196,-0c0,-0 39.21,38.722 39.278,38.928c0.407,0.264 0.675,0.719 0.675,1.234l0,56.122c0,1.071 -0.882,1.941 -1.969,1.941l-26.903,-0l-0,-32.749c-0,-1.444 -1.172,-2.616 -2.616,-2.616l-19.264,-0c-1.444,-0 -2.617,1.172 -2.617,2.616l0,32.749Z" />
        <path d="M31.693,24.867l23.764,-23.764c0.772,-0.772 1.797,-1.139 2.81,-1.1c1.012,-0.039 2.037,0.328 2.809,1.1l54.354,54.354c1.471,1.471 1.471,3.859 0,5.329c-1.471,1.471 -3.858,1.471 -5.329,0l-51.834,-51.834l-51.835,51.834c-1.47,1.471 -3.858,1.471 -5.329,0c-1.471,-1.47 -1.471,-3.858 -0,-5.329l11.882,-11.881l-0,-27.832l18.708,-0l0,9.123Z" />
    </g>
</svg>