<?xml version="1.0" encoding="UTF-8" standalone="no"?><!DOCTYPE svg PUBLIC "-//W3C//DTD SVG 1.1//EN" "http://www.w3.org/Graphics/SVG/1.1/DTD/svg11.dtd"><svg width="100%" height="100%" viewBox="0 0 50 56" version="1.1" xmlns="http://www.w3.org/2000/svg" xmlns:xlink="http://www.w3.org/1999/xlink" xml:space="preserve" xmlns:serif="http://www.serif.com/" style="fill-rule:evenodd;clip-rule:evenodd;stroke-linejoin:round;stroke-miterlimit:2;"><g><path d="M13.814,4.485c0,-2.475 -2.01,-4.485 -4.485,-4.485c-2.475,-0 -4.485,2.01 -4.485,4.485l-0,46.585c-0,2.476 2.01,4.486 4.485,4.486c2.475,-0 4.485,-2.01 4.485,-4.486l0,-46.585Z"/><path d="M25.849,4.479c0,-2.472 -2.007,-4.479 -4.479,-4.479c-2.472,-0 -4.479,2.007 -4.479,4.479l-0,46.597c-0,2.473 2.007,4.48 4.479,4.48c2.472,-0 4.479,-2.007 4.479,-4.48l0,-46.597Z"/><path d="M37.884,4.479c0,-2.472 -2.007,-4.479 -4.479,-4.479c-2.472,-0 -4.479,2.007 -4.479,4.479l-0,46.597c-0,2.473 2.007,4.48 4.479,4.48c2.472,-0 4.479,-2.007 4.479,-4.48l0,-46.597Z"/><path d="M49.919,4.479c0,-2.472 -2.007,-4.479 -4.479,-4.479c-2.472,-0 -4.479,2.007 -4.479,4.479l-0,46.597c-0,2.473 2.007,4.48 4.479,4.48c2.472,-0 4.479,-2.007 4.479,-4.48l0,-46.597Z"/><rect x="7.94" y="45.217" width="37.5" height="3.89"/><rect x="7.94" y="8.18" width="37.5" height="3.89"/><path d="M7.94,12.039c0,-1.056 -0.858,-1.914 -1.914,-1.914l-4.112,0c-1.056,0 -1.914,0.858 -1.914,1.914l-0,3.828c-0,1.056 0.858,1.914 1.914,1.914l4.112,-0c1.056,-0 1.914,-0.858 1.914,-1.914l0,-3.828Z"/></g></svg>