<?xml version="1.0" encoding="UTF-8" standalone="no"?>
<!DOCTYPE svg PUBLIC "-//W3C//DTD SVG 1.1//EN" "http://www.w3.org/Graphics/SVG/1.1/DTD/svg11.dtd">
<svg width="100%" height="100%" viewBox="0 0 171 148" version="1.1" xmlns="http://www.w3.org/2000/svg" xmlns:xlink="http://www.w3.org/1999/xlink" xml:space="preserve" xmlns:serif="http://www.serif.com/" style="fill-rule:evenodd;clip-rule:evenodd;stroke-linejoin:round;stroke-miterlimit:2;">
    <g id="Solar" fill="#e0d100">
        <g>
            <path d="M74.525,100.96c0,-1.246 -1.011,-2.258 -2.257,-2.258l-29.344,-0c-1.246,-0 -2.258,1.012 -2.258,2.258l-22.22,44.421c0,1.246 1.012,2.258 2.258,2.258l29.344,-0c1.246,-0 2.257,-1.012 2.257,-2.258l22.22,-44.421Z" />
            <path d="M113.344,100.96c0,-1.246 -1.011,-2.258 -2.257,-2.258l-29.344,-0c-1.246,-0 -2.258,1.012 -2.258,2.258l-22.22,44.421c0,1.246 1.012,2.258 2.258,2.258l29.344,-0c1.246,-0 2.257,-1.012 2.257,-2.258l22.22,-44.421Z" />
            <path d="M152.163,100.96c0,-1.246 -1.011,-2.258 -2.257,-2.258l-29.344,-0c-1.246,-0 -2.258,1.012 -2.258,2.258l-22.22,44.421c0,1.246 1.012,2.258 2.258,2.258l29.344,-0c1.246,-0 2.257,-1.012 2.257,-2.258l22.22,-44.421Z" />
        </g>
        <g>
            <path d="M134.159,85.305c0,-26.982 -21.873,-48.855 -48.854,-48.855c-26.982,0 -48.855,21.873 -48.855,48.855l14.038,-0c-0,-19.229 15.588,-34.817 34.817,-34.817c19.229,-0 34.817,15.588 34.817,34.817l14.037,-0Z" />
            <path d="M91.653,6.349c0,-3.504 -2.844,-6.349 -6.348,-6.349c-3.504,0 -6.349,2.845 -6.349,6.349l0,15.673c0,3.504 2.845,6.348 6.349,6.348c3.504,0 6.348,-2.844 6.348,-6.348l0,-15.673Z" />
            <path d="M33.963,24.985c-2.477,-2.477 -6.5,-2.477 -8.978,0c-2.477,2.478 -2.477,6.501 0,8.978l11.083,11.083c2.477,2.478 6.5,2.478 8.978,0c2.478,-2.478 2.478,-6.501 0,-8.978l-11.083,-11.083Z" />
            <path d="M6.349,78.956c-3.504,0 -6.349,2.845 -6.349,6.349c0,3.504 2.845,6.348 6.349,6.348l15.673,0c3.504,0 6.348,-2.844 6.348,-6.348c0,-3.504 -2.844,-6.349 -6.348,-6.349l-15.673,0Z" />
            <path d="M164.261,91.653c3.504,0 6.349,-2.844 6.349,-6.348c-0,-3.504 -2.845,-6.349 -6.349,-6.349l-15.673,0c-3.504,0 -6.349,2.845 -6.349,6.349c0,3.504 2.845,6.348 6.349,6.348l15.673,0Z" />
            <path d="M145.624,33.963c2.478,-2.477 2.478,-6.5 0,-8.978c-2.477,-2.477 -6.5,-2.477 -8.978,0l-11.082,11.083c-2.478,2.477 -2.478,6.5 -0,8.978c2.477,2.478 6.5,2.478 8.978,0l11.082,-11.083Z" />
        </g>
    </g>
</svg>