<?xml version="1.0" encoding="UTF-8" standalone="no"?><!DOCTYPE svg PUBLIC "-//W3C//DTD SVG 1.1//EN" "http://www.w3.org/Graphics/SVG/1.1/DTD/svg11.dtd"><svg width="100%" height="100%" viewBox="0 0 146 143" version="1.1" xmlns="http://www.w3.org/2000/svg" xmlns:xlink="http://www.w3.org/1999/xlink" xml:space="preserve" xmlns:serif="http://www.serif.com/" style="fill-rule:evenodd;clip-rule:evenodd;stroke-linejoin:round;stroke-miterlimit:2;"><g><circle cx="72.571" cy="73.69" r="38.163" style="fill:#ffed00;"/><path d="M72.571,0l13.821,27.643l-27.643,0l13.822,-27.643Z" style="fill:#ffed00;"/><path d="M25.204,17.24l28.356,12.292l-21.176,17.768l-7.18,-30.06Z" style="fill:#ffed00;"/><path d="M0,60.894l29.623,-8.811l-4.8,27.223l-24.823,-18.412Z" style="fill:#ffed00;"/><path d="M8.753,110.535l17.029,-25.791l13.821,23.94l-30.85,1.851Z" style="fill:#ffed00;"/><path d="M47.367,142.937l-3.533,-30.704l25.976,9.455l-22.443,21.249Z" style="fill:#ffed00;"/><path d="M97.774,142.937l-22.442,-21.249l25.976,-9.455l-3.534,30.704Z" style="fill:#ffed00;"/><path d="M136.389,110.535l-30.851,-1.851l13.822,-23.94l17.029,25.791Z" style="fill:#ffed00;"/><path d="M145.142,60.894l-24.823,18.412l-4.801,-27.223l29.624,8.811Z" style="fill:#ffed00;"/><path d="M119.938,17.24l-7.181,30.06l-21.175,-17.768l28.356,-12.292Z" style="fill:#ffed00;"/></g></svg>