<?xml version="1.0" encoding="UTF-8" standalone="no"?><!DOCTYPE svg PUBLIC "-//W3C//DTD SVG 1.1//EN" "http://www.w3.org/Graphics/SVG/1.1/DTD/svg11.dtd"><svg width="100%" height="100%" viewBox="0 0 56 43" version="1.1" xmlns="http://www.w3.org/2000/svg" xmlns:xlink="http://www.w3.org/1999/xlink" xml:space="preserve" xmlns:serif="http://www.serif.com/" style="fill-rule:evenodd;clip-rule:evenodd;stroke-linejoin:round;stroke-miterlimit:2;"><g><path id="Timer" d="M29.264,31.181l12.652,-6.956c0.313,-0.173 0.195,-0.647 -0.162,-0.654l-14.432,-0.267c-3.148,-0.059 -5.108,2.284 -4.55,5.302c0.908,2.925 3.739,4.09 6.492,2.575Z"/><path d="M51.497,42.235c2.654,-4.355 4.059,-9.357 4.059,-14.457c-0,-15.331 -12.447,-27.778 -27.778,-27.778c-15.331,0 -27.778,12.447 -27.778,27.778c-0,5.1 1.404,10.102 4.059,14.457l5.929,-3.615c-1.99,-3.266 -3.044,-7.017 -3.044,-10.842c0,-11.498 9.336,-20.834 20.834,-20.834c11.498,0 20.833,9.336 20.833,20.834c0,3.825 -1.053,7.576 -3.044,10.842l5.93,3.615Z"/></g></svg>