<?xml version="1.0" encoding="UTF-8" standalone="no"?><!DOCTYPE svg PUBLIC "-//W3C//DTD SVG 1.1//EN" "http://www.w3.org/Graphics/SVG/1.1/DTD/svg11.dtd"><svg width="100%" height="100%" viewBox="0 0 56 56" version="1.1" xmlns="http://www.w3.org/2000/svg" xmlns:xlink="http://www.w3.org/1999/xlink" xml:space="preserve" xmlns:serif="http://www.serif.com/" style="fill-rule:evenodd;clip-rule:evenodd;stroke-linejoin:round;stroke-miterlimit:2;"><g><path d="M55.556,13.889c-0,-7.666 -6.224,-13.889 -13.889,-13.889l-27.778,-0c-7.666,-0 -13.889,6.223 -13.889,13.889l-0,27.778c-0,7.665 6.223,13.889 13.889,13.889l27.778,-0c7.665,-0 13.889,-6.224 13.889,-13.889l-0,-27.778Zm-6.35,3.174c0,-5.913 -4.801,-10.714 -10.714,-10.714l-21.429,0c-5.913,0 -10.714,4.801 -10.714,10.714l0,21.429c0,5.913 4.801,10.714 10.714,10.714l21.429,0c5.913,0 10.714,-4.801 10.714,-10.714l0,-21.429Z"/><g><path d="M13.525,23.86l-0,21.327l7.246,-0l0,-21.327l-7.246,-0Z"/><path d="M24.155,10.369l-0,34.818l7.246,-0l-0,-34.818l-7.246,-0Z"/><path d="M34.784,34.523l0,10.664l7.247,-0l-0,-10.664l-7.247,0Z"/></g></g></svg>